<?xml version="1.0" encoding="utf-8"?>
<!-- Generator: Adobe Illustrator 25.0.0, SVG Export Plug-In . SVG Version: 6.00 Build 0)  -->
<svg version="1.1" xmlns="http://www.w3.org/2000/svg" xmlns:xlink="http://www.w3.org/1999/xlink" x="0px" y="0px"
	 viewBox="0 0 398.4 308" style="enable-background:new 0 0 398.4 308;" xml:space="preserve">
<style type="text/css">
	.st0{fill:url(#SVGID_1_);}
	.st1{fill:url(#SVGID_2_);}
	.st2{fill:url(#SVGID_3_);}
	.st3{fill:url(#SVGID_4_);}
	.st4{fill:url(#SVGID_5_);}
	.st5{fill:url(#SVGID_6_);}
	.st6{fill:url(#SVGID_7_);}
	.st7{fill:url(#SVGID_8_);}
	.st8{fill:url(#SVGID_9_);}
	.st9{fill:#F9F8F7;}
</style>
<g id="BACKGROUND">
</g>
<g id="OBJECTS">
	<g>
		<g>
			<linearGradient id="SVGID_1_" gradientUnits="userSpaceOnUse" x1="215.9921" y1="231.1086" x2="244.75" y2="66.55">
				<stop  offset="0" style="stop-color:#FF512F"/>
				<stop  offset="1" style="stop-color:#F09819"/>
			</linearGradient>
			<path class="st0" d="M243.2,99.1c-1.2-1.2-3-1.2-4.2,0l-5.9,5.9c-1.2,1.2-1.2,3.1,0,4.2c1.2,1.2,3,1.2,4.2,0l5.9-5.9
				C244.4,102.2,244.4,100.3,243.2,99.1z"/>
			<linearGradient id="SVGID_2_" gradientUnits="userSpaceOnUse" x1="146.6992" y1="219.0025" x2="175.4578" y2="54.4401">
				<stop  offset="0" style="stop-color:#FF512F"/>
				<stop  offset="1" style="stop-color:#F09819"/>
			</linearGradient>
			<path class="st1" d="M171.8,99.1c-1.2-1.2-3-1.2-4.2,0l-5.9,5.9c-1.2,1.2-1.2,3.1,0,4.2c1.2,1.2,3.1,1.2,4.2,0l5.9-5.9
				C173,102.2,173,100.3,171.8,99.1z"/>
			<linearGradient id="SVGID_3_" gradientUnits="userSpaceOnUse" x1="199.5355" y1="228.2383" x2="228.2948" y2="63.6724">
				<stop  offset="0" style="stop-color:#FF512F"/>
				<stop  offset="1" style="stop-color:#F09819"/>
			</linearGradient>
			<path class="st2" d="M228.4,87.2c-1.2-1.2-3.1-1.2-4.2,0l-5.9,5.9c-1.2,1.2-1.2,3.1,0,4.2c1.2,1.2,3.1,1.2,4.2,0l5.9-5.9
				C229.5,90.3,229.5,88.4,228.4,87.2z"/>
			<linearGradient id="SVGID_4_" gradientUnits="userSpaceOnUse" x1="164.8934" y1="222.1847" x2="193.6527" y2="57.6187">
				<stop  offset="0" style="stop-color:#FF512F"/>
				<stop  offset="1" style="stop-color:#F09819"/>
			</linearGradient>
			<path class="st3" d="M192.7,87.2c-1.2-1.2-3.1-1.2-4.2,0l-5.9,5.9c-1.2,1.2-1.2,3.1,0,4.2c1.2,1.2,3.1,1.2,4.2,0l5.9-5.9
				C193.8,90.3,193.8,88.4,192.7,87.2z"/>
			<linearGradient id="SVGID_5_" gradientUnits="userSpaceOnUse" x1="181.3466" y1="225.0542" x2="210.1045" y2="60.4956">
				<stop  offset="0" style="stop-color:#FF512F"/>
				<stop  offset="1" style="stop-color:#F09819"/>
			</linearGradient>
			<path class="st4" d="M207.5,99.1c-1.2-1.2-3-1.2-4.2,0l-5.9,5.9c-1.2,1.2-1.2,3.1,0,4.2c1.2,1.2,3,1.2,4.2,0l5.9-5.9
				C208.7,102.2,208.7,100.3,207.5,99.1z"/>
			<linearGradient id="SVGID_6_" gradientUnits="userSpaceOnUse" x1="191.767" y1="226.8792" x2="220.526" y2="62.3151">
				<stop  offset="0" style="stop-color:#FF512F"/>
				<stop  offset="1" style="stop-color:#F09819"/>
			</linearGradient>
			<path class="st5" d="M272.7,151.8h-3v-9.6c0.1-0.1,0.2-0.2,0.4-0.3c1.9-1.8,6-2.9,8.6-2.9c1.6,0,3-1.4,2.9-3c0-1.6-1.4-2.9-3-2.9
				h0c-2.5,0-5.9,0.7-8.9,2.1v-7.8c3.6-1.5,6-5.2,5.5-9.3c-3.5-28.2-27.6-49.5-56.1-49.5h-27.4c-28.5,0-52.6,21.3-56.1,49.5
				c-0.5,4.1,1.9,7.9,5.5,9.3v7.7c-2.9-1.3-6.4-2-9-2c-1.6,0-2.9,1.4-2.9,3c0,1.6,1.3,2.9,3,2.9h0c2.7-0.1,6.8,1.1,8.8,2.9
				c0,0,0.1,0,0.1,0.1v9.8h-3c-4.9,0-8.9,4-8.9,8.9c0,4.4,3.2,8.1,7.5,8.8c-0.7,1.8-0.8,3.8-0.1,5.8c3.7,10.9,13.9,18.2,25.4,18.2
				h86.9c11.5,0,21.7-7.3,25.4-18.2c0.6-1.9,0.6-3.9-0.1-5.7c4.1-0.7,7.5-4.3,7.5-8.8C281.6,155.8,277.6,151.8,272.7,151.8z
				 M141.6,118.7c3.1-25.2,24.7-44.3,50.2-44.3h27.4c25.5,0,47,19,50.2,44.3c0.2,1.7-1.1,3.2-2.8,3.3h-0.1c0,0-0.1,0-0.1,0H144.6
				C142.8,122.1,141.4,120.5,141.6,118.7z M252.2,137.5c-6.5-6-15.3-6-21.9,0c-4.3,3.9-9.6,3.9-13.8,0c-6.5-6-15.3-6-21.9,0
				c-4.3,3.9-9.6,3.9-13.8,0c-6.5-6-15.3-6-21.9,0c-3.6,3.3-8,3.8-11.8,1.5v-11h116.6v11.2C260,141.3,255.7,140.7,252.2,137.5z
				 M263.8,145.6v6.2H147.1v-6.3c1.6,0.6,3.3,0.8,4.9,0.8c3.8,0,7.7-1.5,10.9-4.5c4.3-3.9,9.6-3.9,13.8,0c6.5,6,15.3,6,21.9,0
				c4.3-3.9,9.6-3.9,13.8,0c6.5,6,15.3,6,21.9,0c4.3-3.9,9.6-3.9,13.8,0C252.8,146.1,258.5,147.3,263.8,145.6z M268.6,173.4
				c-2.9,8.5-10.8,14.1-19.7,14.1H162c-8.9,0-16.9-5.7-19.7-14.1c-0.6-1.8,1-3.7,2.9-3.7h120.5C267.7,169.6,269.2,171.6,268.6,173.4
				z M272.7,163.7H138.2c-1.6,0-3-1.3-3-3c0-1.6,1.3-3,3-3h134.5c1.6,0,3,1.3,3,3S274.3,163.7,272.7,163.7z"/>
		</g>
		<g>
			<linearGradient id="SVGID_7_" gradientUnits="userSpaceOnUse" x1="98.6917" y1="289.5474" x2="115.2134" y2="-93.9306">
				<stop  offset="0" style="stop-color:#FF512F"/>
				<stop  offset="1" style="stop-color:#F09819"/>
			</linearGradient>
			<path class="st6" d="M69.2,49.2h94.5c1.3,0,2.3,1,2.3,2.3l0,0c0,1.3-1,2.3-2.3,2.3H69.2c-7.4,0-13.4,6-13.4,13.4v25.6
				c0,1.2-0.9,2.3-2.1,2.4c-1.4,0.1-2.5-1-2.5-2.3V67.3C51.2,57.3,59.3,49.2,69.2,49.2z"/>
			<linearGradient id="SVGID_8_" gradientUnits="userSpaceOnUse" x1="293.9901" y1="264.4217" x2="308.7544" y2="-78.2638">
				<stop  offset="0" style="stop-color:#FF512F"/>
				<stop  offset="1" style="stop-color:#F09819"/>
			</linearGradient>
			<path class="st7" d="M359.7,67.4v25.5c0,1.2-0.9,2.4-2.1,2.5c-1.4,0.1-2.5-1-2.5-2.3V67.4c0-7.4-6-13.5-13.5-13.5h-94.5
				c-1.3,0-2.3-1-2.3-2.3l0,0c0-1.3,1-2.3,2.3-2.3h94.5C351.6,49.2,359.7,57.3,359.7,67.4z"/>
		</g>
		<g>
			<g>
				<g>
					<path d="M5.2,175.1v-49.9h9.4c2.6,0,4.6,0.5,6.1,1.6c1.5,1.1,2.5,2.6,3.1,4.7c0.6,2,0.9,4.4,0.9,7.3l0,21.9
						c0,3.4-0.3,6.1-1,8.2c-0.7,2.1-1.8,3.7-3.3,4.7c-1.5,1-3.5,1.5-6,1.5H5.2z M11,170.4h3c1.1,0,1.9-0.2,2.6-0.7
						c0.7-0.5,1.2-1.3,1.6-2.6c0.4-1.3,0.5-3.1,0.5-5.5v-23c0-3.1-0.4-5.4-1.1-6.7c-0.7-1.4-1.9-2-3.6-2h-3V170.4z"/>
					<path d="M38.1,175.1v-49.9H53v4.9h-9v17.1h8.6v4.9h-8.6v18.2h9.2v4.9H38.1z"/>
					<path d="M70.7,175.1l-8.3-49.9H68l3.3,21.1l2.8,18.6h0.1l2.5-18.6l2.9-21.1h5.5l-7.6,49.9H70.7z"/>
				</g>
			</g>
			<g>
				<g>
					<path d="M311.2,175.1v-49.9h5.9v21.4h8v-21.4h5.9v49.9h-5.9v-23.8h-8v23.8H311.2z"/>
					<path d="M344.9,175.1v-49.9h9c2.6,0,4.5,0.4,5.9,1.1c1.4,0.8,2.4,2,3,3.6c0.6,1.6,0.9,3.8,0.9,6.5v1.1c0,2.8-0.3,5-0.8,6.8
						c-0.5,1.7-1.5,3-3,3.8c1.2,0.5,2.1,1.3,2.8,2.5c0.7,1.2,1.1,2.6,1.4,4.2c0.3,1.6,0.4,3.4,0.4,5.3v1c0,3.3-0.4,5.9-1,8
						c-0.6,2.1-1.6,3.6-3,4.6c-1.4,1-3.4,1.5-5.8,1.5H344.9z M350.8,146h3.3c0.8,0,1.4-0.1,1.9-0.3c0.5-0.2,0.9-0.5,1.1-1.1
						s0.5-1.4,0.6-2.4s0.1-2.5,0.1-4.3v-1.4c0-1.9-0.1-3.3-0.4-4.2c-0.3-0.9-0.7-1.5-1.3-1.8c-0.6-0.3-1.4-0.5-2.4-0.5h-2.9V146z
						 M350.8,170.4h3.6c1.1,0,2-0.3,2.6-0.8c0.6-0.5,1-1.5,1.3-2.9c0.2-1.4,0.4-3.3,0.4-5.7v-1.7c0-3.1-0.2-5.3-0.7-6.7
						c-0.5-1.4-1.6-2-3.2-2h-3.9V170.4z"/>
					<path d="M385.2,175.6c-2.9,0-5.1-1.2-6.7-3.6c-1.6-2.4-2.3-6.3-2.3-11.8v-20.9c0-2.2,0.2-4.2,0.5-6c0.3-1.8,0.8-3.3,1.6-4.6
						c0.8-1.3,1.8-2.3,3.1-3s3-1,5-1c2.1,0,3.7,0.4,5,1.1c1.2,0.7,2.2,1.7,2.8,3c0.6,1.3,1.1,2.9,1.3,4.7c0.2,1.8,0.3,3.8,0.3,6v3.9
						H390v-6.5c0-2.4-0.2-4.2-0.7-5.4s-1.5-1.7-3-1.7c-1.6,0-2.7,0.7-3.3,2.1c-0.6,1.4-0.9,3.8-0.9,7.3v21c0,3.8,0.3,6.6,0.8,8.2
						c0.5,1.6,1.6,2.5,3.3,2.5c1.6,0,2.7-0.8,3.3-2.5c0.6-1.7,0.9-4.4,0.9-8.3v-6.5h-4.1v-4.5h9.4v26.2h-3.1l-0.8-3.9
						c-0.5,1.4-1.4,2.5-2.5,3.2C388.2,175.2,386.8,175.6,385.2,175.6z"/>
				</g>
			</g>
		</g>
		<g>
			<linearGradient id="SVGID_9_" gradientUnits="userSpaceOnUse" x1="201.3454" y1="346.5462" x2="220.3584" y2="-94.7553">
				<stop  offset="0" style="stop-color:#FF512F"/>
				<stop  offset="1" style="stop-color:#F09819"/>
			</linearGradient>
			<path class="st8" d="M341.6,282.2H69.3c-10,0-18.1-8.1-18.1-18.1v-25.7c0-1.3,1-2.3,2.3-2.3c1.3,0,2.3,1,2.3,2.3v25.7
				c0,7.4,6,13.4,13.4,13.4h272.4c7.4,0,13.4-6,13.4-13.4v-25.7c0-1.3,1-2.3,2.3-2.3c1.3,0,2.3,1,2.3,2.3v25.7
				C359.7,274.1,351.6,282.2,341.6,282.2z"/>
		</g>
		<g>
			<g>
				<g>
					<path d="M398.4,253.6c-61.3-30.7-124.4-46.5-192.9-47.9c-68.5,1.5-131.7,17.2-192.9,47.9c12.1,7.3,18,11.1,29.3,19.1
						c-0.9,13.8-1.1,20.7-1,34.3c52.6-26.1,105.9-39.4,164.6-40.9c58.7,1.5,112,14.7,164.6,40.9c0.1-13.6-0.1-20.5-1-34.3
						C380.4,264.7,386.2,260.8,398.4,253.6z"/>
				</g>
			</g>
			<g>
				<g>
					<path class="st9" d="M109.6,271.2l-10.5-40.8l7.4-1.9c2.1-0.5,3.8-0.6,5.1-0.3c1.3,0.3,2.4,1.1,3.2,2.3
						c0.8,1.2,1.5,2.9,2.1,5.1l0.2,0.9c0.6,2.3,0.8,4.2,0.8,5.7c-0.1,1.5-0.6,2.8-1.7,3.7c1.1,0.1,2,0.6,2.8,1.4s1.5,1.9,2,3.2
						c0.6,1.3,1.1,2.7,1.4,4.2l0.2,0.9c0.7,2.7,0.9,4.9,0.9,6.7s-0.6,3.3-1.5,4.4c-1,1.1-2.4,1.9-4.4,2.4L109.6,271.2z M108.3,246.2
						l2.7-0.7c0.6-0.2,1.2-0.4,1.5-0.6c0.4-0.2,0.6-0.6,0.7-1.1c0.1-0.5,0.1-1.2-0.1-2.1c-0.1-0.9-0.4-2.1-0.8-3.6l-0.3-1.1
						c-0.4-1.5-0.8-2.7-1.2-3.4c-0.4-0.7-0.9-1.1-1.5-1.2s-1.3-0.1-2.1,0.1l-2.4,0.6L108.3,246.2z M113.4,266.1l2.9-0.8
						c0.9-0.2,1.6-0.6,1.9-1.2c0.4-0.6,0.5-1.4,0.4-2.6c-0.1-1.2-0.4-2.8-0.9-4.7l-0.4-1.4c-0.6-2.5-1.3-4.3-2-5.3
						c-0.7-1-1.7-1.3-3-1l-3.2,0.8L113.4,266.1z"/>
					<path class="st9" d="M132.9,265.5l-1.3-42.6l5.9-1.1l14.4,40.2l-4.6,0.8l-2.6-7.7l-7.5,1.4l0.4,8.1L132.9,265.5z M136.9,252.5
						l6.4-1.2L136,230l-0.1,0L136.9,252.5z"/>
					<path class="st9" d="M160.7,260.8l-4.7-41.8l8.8-1c2.2-0.3,3.9,0,5.1,0.6c1.2,0.7,2,1.8,2.5,3.3c0.5,1.5,0.9,3.5,1.2,5.9
						c0.3,2.6,0.3,4.7-0.1,6.2c-0.4,1.6-1.3,2.7-2.7,3.3c0.8,0,1.4,0.3,2,0.8c0.6,0.5,1,1.2,1.5,2.3c0.4,1.1,0.8,2.5,1.1,4.4
						c0.3,1.8,0.7,4.2,1,7c0,0.3,0.1,0.7,0.1,1.2c0.1,0.5,0.1,1.1,0.2,1.7s0.2,1.2,0.3,1.8c0.1,0.6,0.2,1.1,0.3,1.5s0.2,0.8,0.3,1
						l-4.9,0.6c-0.1-0.1-0.2-0.4-0.3-0.9c-0.1-0.5-0.2-1.1-0.3-1.9c-0.1-0.8-0.3-1.8-0.4-2.9s-0.3-2.4-0.4-3.8
						c-0.2-1.4-0.3-2.9-0.5-4.6c-0.2-1.6-0.4-2.8-0.6-3.6c-0.2-0.8-0.6-1.4-1.1-1.6c-0.5-0.3-1.4-0.4-2.5-0.3l-2.9,0.2l2.3,20.2
						L160.7,260.8z M162.9,236.4l3.1-0.4c0.9-0.1,1.6-0.4,2-0.8c0.4-0.4,0.7-1.2,0.7-2.3c0.1-1.1,0-2.7-0.3-4.8l0-0.3
						c-0.2-1.8-0.4-3.1-0.7-4s-0.7-1.5-1.2-1.7c-0.5-0.3-1.3-0.3-2.2-0.2l-3.1,0.3L162.9,236.4z"/>
					<path class="st9" d="M187.3,258.1l-2-42.1l7.6-0.4c2.2-0.1,3.8,0.1,5,0.7c1.2,0.6,2.1,1.6,2.6,2.9s0.9,3.2,1,5.4l0,0.9
						c0.1,2.3,0,4.3-0.4,5.8c-0.4,1.5-1.2,2.6-2.4,3.3c1,0.4,1.8,1,2.4,2c0.6,1,1.1,2.1,1.4,3.5s0.5,2.9,0.6,4.5l0,0.9
						c0.1,2.7-0.1,5-0.5,6.8c-0.4,1.8-1.2,3.1-2.4,4c-1.2,0.9-2.8,1.4-4.8,1.5L187.3,258.1z M191.1,233.4l2.8-0.1
						c0.7,0,1.2-0.1,1.6-0.3c0.4-0.2,0.7-0.5,0.9-1c0.2-0.5,0.3-1.2,0.4-2.1c0-0.9,0-2.1-0.1-3.7l-0.1-1.2c-0.1-1.6-0.3-2.8-0.5-3.5
						s-0.7-1.3-1.2-1.5s-1.2-0.3-2.1-0.3l-2.4,0.1L191.1,233.4z M192.1,253.9l3-0.1c0.9,0,1.7-0.3,2.1-0.8c0.5-0.5,0.8-1.3,1-2.5
						c0.2-1.2,0.2-2.8,0.1-4.8l-0.1-1.5c-0.1-2.6-0.4-4.5-0.9-5.6c-0.5-1.1-1.4-1.6-2.8-1.6l-3.3,0.2L192.1,253.9z"/>
					<path class="st9" d="M213.2,257.7l2.5-42l12.6,0.7l-0.2,4.1l-7.6-0.5l-0.9,14.4l7.2,0.4l-0.2,4.1l-7.2-0.4l-0.9,15.3l7.7,0.5
						l-0.2,4.1L213.2,257.7z"/>
					<path class="st9" d="M243.2,260.8c-2-0.2-3.6-0.9-4.7-2.1s-1.8-2.7-2.1-4.7c-0.3-2-0.3-4.3,0.1-7.1l2.1-17.4
						c0.2-1.8,0.5-3.5,1-5c0.4-1.5,1-2.8,1.7-3.8c0.7-1,1.7-1.8,2.9-2.3c1.2-0.5,2.6-0.6,4.3-0.4c1.6,0.2,2.9,0.6,3.9,1.3
						c1,0.7,1.7,1.6,2.1,2.8s0.7,2.5,0.7,3.9s-0.1,3.1-0.3,4.9l-0.6,4.6l-4.8-0.6l0.6-4.7c0.3-2.6,0.4-4.6,0.1-5.9
						c-0.2-1.3-1-2.1-2.3-2.2c-1.4-0.2-2.4,0.4-3,1.6s-1.1,3.2-1.4,5.7l-2.2,18.1c-0.2,2-0.4,3.7-0.3,5s0.2,2.2,0.7,2.9
						c0.4,0.6,1.1,1,2,1.1c1.3,0.2,2.3-0.4,2.8-1.7s1-3.4,1.4-6.5l0.6-4.6l4.9,0.6l-0.6,4.6c-0.3,2.8-0.9,5.1-1.6,6.9
						c-0.7,1.8-1.7,3.2-3,4S245.3,261,243.2,260.8z"/>
					<path class="st9" d="M269.3,264.8c-2-0.4-3.6-1.1-4.6-2.1c-1-1-1.7-2.4-1.9-4.2c-0.2-1.7-0.1-3.9,0.4-6.4l5.9-30.7l4.9,0.9
						l-5.9,30.6c-0.3,1.5-0.5,2.8-0.6,3.9c-0.1,1.1,0,2,0.4,2.6c0.4,0.7,1.1,1.1,2.1,1.3c1.1,0.2,1.9,0.1,2.5-0.4s1-1.2,1.3-2.3
						c0.3-1,0.6-2.3,0.9-3.8l5.9-30.6l4.8,0.9l-5.9,30.7c-0.5,2.5-1.1,4.5-1.9,6.1c-0.8,1.5-1.9,2.6-3.2,3.2
						S271.3,265.2,269.3,264.8z"/>
					<path class="st9" d="M288,268.4l10.7-40.7l12.2,3.2l-1,4l-7.4-1.9l-3.7,13.9l7,1.8l-1,4l-7-1.8l-3.9,14.9l7.5,2l-1,4L288,268.4
						z"/>
				</g>
			</g>
		</g>
		<g>
			<g>
				<path d="M211.1,1c0,0-18.1,6.7-18.1,20c0,10.2,14.5,13,14.5,20.8S197,57.5,197,57.5s18.8-6.3,19.2-18.1
					c0.4-11.8-12.8-12.9-12.4-20C204.7,7.7,211.1,1,211.1,1z"/>
				<g>
					<path d="M185.6,15.5c0,0-14.7,5.4-14.7,16.3c0,8.3,11.8,10.5,11.8,16.9c0,6.4-8.6,12.8-8.6,12.8s15.3-5.1,15.7-14.7
						c0.3-9.6-10.5-10.5-10.1-16.3C180.3,20.9,185.6,15.5,185.6,15.5z"/>
					<path d="M235.8,15.5c0,0-14.7,5.4-14.7,16.3c0,8.3,11.8,10.5,11.8,16.9c0,6.4-8.6,12.8-8.6,12.8s15.3-5.1,15.7-14.7
						c0.3-9.6-10.5-10.5-10.1-16.3C230.6,20.9,235.8,15.5,235.8,15.5z"/>
				</g>
			</g>
		</g>
	</g>
</g>
</svg>
